<svg xmlns="http://www.w3.org/2000/svg" viewBox="0 0 596.56 603.5"><defs><style>.cls-1{fill:#8eb8ad;}.cls-2{fill:#fff;}.cls-3,.cls-4,.cls-5,.cls-6{fill:#585959;}.cls-4{font-size:48px;font-family:LucidaHandwriting-Italic, Lucida Handwriting;}.cls-4,.cls-6{font-style:italic;}.cls-5{stroke:#585959;stroke-miterlimit:10;stroke-width:3px;}.cls-6{font-size:36px;font-family:MyriadPro-It, Myriad Pro;}.cls-7{letter-spacing:0em;}.cls-8{letter-spacing:-0.01em;}.cls-9{letter-spacing:-0.01em;}.cls-10{letter-spacing:-0.01em;}.cls-11{letter-spacing:0.01em;}.cls-12{letter-spacing:0em;}.cls-13{letter-spacing:0.02em;}.cls-14{letter-spacing:0em;}</style></defs><g id="Layer_2" data-name="Layer 2"><g id="Layer_2-2" data-name="Layer 2"><circle class="cls-1" cx="298.28" cy="301.75" r="260.6"/><ellipse class="cls-1" cx="298.28" cy="41.15" rx="54.86" ry="41.15"/><ellipse class="cls-1" cx="209.15" cy="56.86" rx="54.86" ry="41.15" transform="translate(-6.84 74.96) rotate(-20)"/><ellipse class="cls-1" cx="130.77" cy="102.12" rx="54.86" ry="41.15" transform="translate(-35.05 107.95) rotate(-40)"/><ellipse class="cls-1" cx="72.59" cy="171.45" rx="54.86" ry="41.15" transform="translate(-112.18 148.59) rotate(-60)"/><ellipse class="cls-1" cx="41.64" cy="256.5" rx="54.86" ry="41.15" transform="translate(-218.19 252.96) rotate(-80)"/><ellipse class="cls-1" cx="41.64" cy="347" rx="41.15" ry="54.86" transform="translate(-59.62 12.5) rotate(-10)"/><ellipse class="cls-1" cx="72.59" cy="432.05" rx="41.15" ry="54.86" transform="translate(-206.3 94.18) rotate(-30)"/><ellipse class="cls-1" cx="130.77" cy="501.38" rx="41.15" ry="54.86" transform="translate(-337.37 279.27) rotate(-50)"/><ellipse class="cls-1" cx="209.15" cy="546.64" rx="41.15" ry="54.86" transform="matrix(0.34, -0.94, 0.94, 0.34, -376.05, 556.21)"/><ellipse class="cls-1" cx="298.28" cy="562.35" rx="54.86" ry="41.15"/><ellipse class="cls-1" cx="387.41" cy="546.64" rx="54.86" ry="41.15" transform="translate(-163.6 165.47) rotate(-20)"/><ellipse class="cls-1" cx="465.79" cy="501.38" rx="54.86" ry="41.15" transform="translate(-213.31 416.71) rotate(-40)"/><ellipse class="cls-1" cx="523.97" cy="432.05" rx="54.86" ry="41.15" transform="translate(-112.18 669.8) rotate(-60)"/><ellipse class="cls-1" cx="554.92" cy="347" rx="54.86" ry="41.15" transform="translate(116.83 833.24) rotate(-80)"/><ellipse class="cls-1" cx="554.92" cy="256.5" rx="41.15" ry="54.86" transform="translate(-36.11 100.26) rotate(-10)"/><ellipse class="cls-1" cx="523.97" cy="171.45" rx="41.15" ry="54.86" transform="translate(-15.53 284.95) rotate(-30)"/><ellipse class="cls-1" cx="465.79" cy="102.12" rx="41.15" ry="54.86" transform="translate(88.16 393.29) rotate(-50)"/><ellipse class="cls-1" cx="387.41" cy="56.86" rx="41.15" ry="54.86" transform="translate(201.47 401.46) rotate(-70)"/><circle class="cls-2" cx="301" cy="301.75" r="225"/><g id="pallini"><circle class="cls-1" cx="298.28" cy="113.63" r="4"/><circle class="cls-1" cx="265.61" cy="116.48" r="4"/><circle class="cls-1" cx="233.94" cy="124.97" r="4"/><circle class="cls-1" cx="204.22" cy="138.83" r="4"/><circle class="cls-1" cx="177.36" cy="157.64" r="4"/><circle class="cls-1" cx="154.17" cy="180.83" r="4"/><circle class="cls-1" cx="135.36" cy="207.69" r="4"/><circle class="cls-1" cx="121.5" cy="237.41" r="4"/><circle class="cls-1" cx="113.01" cy="269.08" r="4"/><circle class="cls-1" cx="110.15" cy="301.75" r="4"/><circle class="cls-1" cx="113.01" cy="334.42" r="4"/><circle class="cls-1" cx="121.5" cy="366.09" r="4"/><circle class="cls-1" cx="135.36" cy="395.81" r="4"/><circle class="cls-1" cx="154.17" cy="422.67" r="4"/><circle class="cls-1" cx="177.36" cy="445.86" r="4"/><circle class="cls-1" cx="204.22" cy="464.67" r="4"/><circle class="cls-1" cx="233.94" cy="478.53" r="4"/><circle class="cls-1" cx="265.61" cy="487.02" r="4"/><circle class="cls-1" cx="298.28" cy="489.87" r="4"/><circle class="cls-1" cx="330.95" cy="487.02" r="4"/><circle class="cls-1" cx="362.62" cy="478.53" r="4"/><circle class="cls-1" cx="392.34" cy="464.67" r="4"/><circle class="cls-1" cx="419.2" cy="445.86" r="4"/><circle class="cls-1" cx="442.39" cy="422.67" r="4"/><circle class="cls-1" cx="461.2" cy="395.81" r="4"/><circle class="cls-1" cx="475.06" cy="366.09" r="4"/><circle class="cls-1" cx="483.55" cy="334.42" r="4"/><circle class="cls-1" cx="486.4" cy="301.75" r="4"/><circle class="cls-1" cx="483.55" cy="269.08" r="4"/><circle class="cls-1" cx="475.06" cy="237.41" r="4"/><circle class="cls-1" cx="461.2" cy="207.69" r="4"/><circle class="cls-1" cx="442.39" cy="180.83" r="4"/><circle class="cls-1" cx="419.2" cy="157.64" r="4"/><circle class="cls-1" cx="392.34" cy="138.83" r="4"/><circle class="cls-1" cx="362.62" cy="124.97" r="4"/><circle class="cls-1" cx="330.95" cy="116.48" r="4"/></g><path class="cls-3" d="M319.19,453.63H286.68a.9.9,0,0,1-.91-.5L280,433.43c-.11-.37.33-.72.91-.72h44c.59,0,1,.35.92.72l-5.75,19.7A.91.91,0,0,1,319.19,453.63Z"/><path class="cls-3" d="M323.89,413.43c-.33-.25-.63-.53-.94-.8-3.22-2.83-11.13-4.82-20.39-4.82s-17.18,2-20.4,4.82c-.31.27-.61.55-.94.8a10.35,10.35,0,0,0-4,8.36h0c0,5.48,3.82,9.92,8.54,9.92h33.51c4.72,0,8.54-4.44,8.54-9.92h0A10.35,10.35,0,0,0,323.89,413.43Z"/><path class="cls-3" d="M319.26,406.86a8.36,8.36,0,0,1-.61-.58c-2.45-2.6-8.76-4.45-16.17-4.45s-13.73,1.85-16.17,4.45c-.19.2-.4.4-.61.59a9.77,9.77,0,0,0-3.12,7.49h0c0,4.91,3,8.89,6.72,8.89h26.36c3.71,0,6.72-4,6.72-8.89h0A9.84,9.84,0,0,0,319.26,406.86Z"/><circle class="cls-3" cx="302.46" cy="401.83" r="6.47"/><path class="cls-3" d="M326.41,423.45c-.37-.21-.71-.45-1.07-.68-3.61-2.35-12.47-4-22.83-4s-19.23,1.66-22.84,4c-.35.23-.7.47-1.07.68a8.06,8.06,0,0,0-4.43,7h0c0,4.56,4.28,8.26,9.56,8.26h37.55c5.28,0,9.56-3.7,9.56-8.26h0A8.06,8.06,0,0,0,326.41,423.45Z"/><text class="cls-4" transform="translate(224.89 187.63)">Sweet</text><text class="cls-4" transform="translate(224.89 228.32)">Sweet</text><path class="cls-3" d="M256.12,250.69c-5.1.42-5.52.78-6.42,5.76L245,280.63c-.9,4.92-.54,5.22,4.74,5.7l-.42,1.68h-16l.36-1.68c5.16-.42,5.46-.84,6.42-5.7l2.28-12H222.7l-2.28,12c-1,5-.48,5.28,4.62,5.7l-.36,1.68h-16l.36-1.68c4.86-.36,5.46-.84,6.36-5.7l4.68-24.18c1-5,.66-5.28-4.56-5.76l.3-1.68h16l-.36,1.68c-5.16.42-5.52.84-6.48,5.76l-1.86,9.84h19.68l1.86-9.84c1-5,.72-5.34-4.56-5.76l.42-1.68h16Z"/><path class="cls-3" d="M294.46,265c0,12.48-8.58,23.94-21.18,23.94-9.48,0-15.54-6.54-15.54-16.44,0-12.36,8.82-24.3,21.24-24.3C288.58,248.17,294.46,254.77,294.46,265Zm-31.08,7.86c0,8.28,3.06,13.92,10.38,13.92,10,0,15.06-12.48,15.06-22.26,0-8.4-2.52-14.16-10.26-14.16C269.32,250.33,263.38,262.21,263.38,272.83Z"/><path class="cls-3" d="M350.2,250.69c-5.16.48-5.46.66-6.24,5.64-1.26,8.58-2.1,15.66-3.12,23.52-.78,5.82-.24,6.06,4.8,6.48l-.42,1.68H329.5l.42-1.68c4.8-.48,5.16-.66,6.06-6.48,1.26-8.7,2.4-16.68,3.72-25.2h-.18c-6.6,11-16.62,27.78-19.62,33.36h-1.38c-1-6.18-4.74-21.3-7.08-32.76h-.12l-4,16.44c-1.44,6.06-2.1,8.82-2.4,10.86-.42,2.64.18,3.36,4.8,3.78l-.42,1.68h-14.1l.42-1.68c4.08-.3,5.1-1.14,5.94-3.66,1.08-3.12,2.34-7.26,4-13.62l2.88-11.52c1.5-5.88,1.44-6.12-4.38-6.84l.48-1.68h10.08c2,9.24,5.16,20.4,7.44,30.48L340.66,249h10Z"/><path class="cls-3" d="M375.76,249c2.88,0,5.58,0,7.8-.06-.36,1.44-1,5.58-1.56,9.12l-1.86.06c-.24-6.24-1.26-6.84-5.16-6.84H369c-2,0-2.52.12-2.94,2.4l-2.52,12.9h6.18c4.92,0,5.16-.72,6.84-4.92h1.8l-2.46,12.42h-1.8c0-4.62.18-5.22-4.92-5.22h-6.06l-2.1,10.68c-.9,4.26-.78,6.18,3.48,6.18H369c3.54,0,5.1-.36,6.78-1.92a21,21,0,0,0,4-5.52l1.74.6c-.6,1.68-2.64,7.26-3.42,9.12H348.82l.42-1.68c5.28-.54,5.76-.72,6.66-5.52l4.74-24.54c.9-4.62.6-5.16-4.62-5.58l.36-1.68Z"/><line class="cls-5" x1="441" y1="314.13" x2="161" y2="314.13"/><text class="cls-6" transform="translate(190.13 349.49)">cu<tspan class="cls-7" x="34.16" y="0">p</tspan><tspan class="cls-8" x="53.17" y="0">c</tspan><tspan x="67.86" y="0">a</tspan><tspan class="cls-9" x="86.65" y="0">k</tspan><tspan x="102.56" y="0">e </tspan><tspan class="cls-10" x="125.42" y="0">f</tspan><tspan x="135.36" y="0">a</tspan><tspan class="cls-11" x="154.15" y="0">c</tspan><tspan class="cls-12" x="169.59" y="0">t</tspan><tspan x="180.72" y="0">o</tspan><tspan class="cls-13" x="199.51" y="0">r</tspan><tspan class="cls-14" x="211.67" y="0">y</tspan></text><line class="cls-5" x1="421.66" y1="367.23" x2="171.66" y2="367.23"/></g></g></svg>