<svg xmlns="http://www.w3.org/2000/svg" viewBox="0 0 596.56 603.5"><defs><style>.cls-1{fill:#8eb8ad;}.cls-2{fill:#fff;}.cls-3,.cls-4,.cls-5,.cls-6{fill:#585959;}.cls-4{font-size:75px;font-family:LucidaHandwriting-Italic, Lucida Handwriting;}.cls-4,.cls-6{font-style:italic;}.cls-5{stroke:#585959;stroke-miterlimit:10;stroke-width:3px;}.cls-6{font-size:55px;font-family:MyriadPro-It, Myriad Pro;}.cls-7{letter-spacing:0em;}.cls-8{letter-spacing:-0.01em;}.cls-9{letter-spacing:0em;}.cls-10{letter-spacing:-0.01em;}.cls-11{letter-spacing:-0.01em;}.cls-12{letter-spacing:0.01em;}.cls-13{letter-spacing:0em;}.cls-14{letter-spacing:0.02em;}</style></defs><g id="Layer_2" data-name="Layer 2"><g id="Layer_2-2" data-name="Layer 2"><circle class="cls-1" cx="298.28" cy="301.75" r="260.6"/><ellipse class="cls-1" cx="298.28" cy="41.15" rx="54.86" ry="41.15"/><ellipse class="cls-1" cx="209.15" cy="56.86" rx="54.86" ry="41.15" transform="translate(-6.84 74.96) rotate(-20)"/><ellipse class="cls-1" cx="130.77" cy="102.12" rx="54.86" ry="41.15" transform="translate(-35.05 107.95) rotate(-40)"/><ellipse class="cls-1" cx="72.59" cy="171.45" rx="54.86" ry="41.15" transform="translate(-112.18 148.59) rotate(-60)"/><ellipse class="cls-1" cx="41.64" cy="256.5" rx="54.86" ry="41.15" transform="translate(-218.19 252.96) rotate(-80)"/><ellipse class="cls-1" cx="41.64" cy="347" rx="41.15" ry="54.86" transform="translate(-59.62 12.5) rotate(-10)"/><ellipse class="cls-1" cx="72.59" cy="432.05" rx="41.15" ry="54.86" transform="translate(-206.3 94.18) rotate(-30)"/><ellipse class="cls-1" cx="130.77" cy="501.38" rx="41.15" ry="54.86" transform="translate(-337.37 279.27) rotate(-50)"/><ellipse class="cls-1" cx="209.15" cy="546.64" rx="41.15" ry="54.86" transform="matrix(0.34, -0.94, 0.94, 0.34, -376.05, 556.21)"/><ellipse class="cls-1" cx="298.28" cy="562.35" rx="54.86" ry="41.15"/><ellipse class="cls-1" cx="387.41" cy="546.64" rx="54.86" ry="41.15" transform="translate(-163.6 165.47) rotate(-20)"/><ellipse class="cls-1" cx="465.79" cy="501.38" rx="54.86" ry="41.15" transform="translate(-213.31 416.71) rotate(-40)"/><ellipse class="cls-1" cx="523.97" cy="432.05" rx="54.86" ry="41.15" transform="translate(-112.18 669.8) rotate(-60)"/><ellipse class="cls-1" cx="554.92" cy="347" rx="54.86" ry="41.15" transform="translate(116.83 833.24) rotate(-80)"/><ellipse class="cls-1" cx="554.92" cy="256.5" rx="41.15" ry="54.86" transform="translate(-36.11 100.26) rotate(-10)"/><ellipse class="cls-1" cx="523.97" cy="171.45" rx="41.15" ry="54.86" transform="translate(-15.53 284.95) rotate(-30)"/><ellipse class="cls-1" cx="465.79" cy="102.12" rx="41.15" ry="54.86" transform="translate(88.16 393.29) rotate(-50)"/><ellipse class="cls-1" cx="387.41" cy="56.86" rx="41.15" ry="54.86" transform="translate(201.47 401.46) rotate(-70)"/><circle class="cls-2" cx="298.28" cy="301.75" r="237"/><g id="pallini"><circle class="cls-1" cx="298.28" cy="88.3" r="4.54"/><circle class="cls-1" cx="261.21" cy="91.54" r="4.54"/><circle class="cls-1" cx="225.27" cy="101.17" r="4.54"/><circle class="cls-1" cx="191.55" cy="116.89" r="4.54"/><circle class="cls-1" cx="161.07" cy="138.24" r="4.54"/><circle class="cls-1" cx="134.76" cy="164.55" r="4.54"/><circle class="cls-1" cx="113.42" cy="195.02" r="4.54"/><circle class="cls-1" cx="97.69" cy="228.74" r="4.54"/><circle class="cls-1" cx="88.06" cy="264.68" r="4.54"/><circle class="cls-1" cx="84.82" cy="301.75" r="4.54"/><circle class="cls-1" cx="88.06" cy="338.82" r="4.54"/><circle class="cls-1" cx="97.69" cy="374.76" r="4.54"/><circle class="cls-1" cx="113.42" cy="408.48" r="4.54"/><circle class="cls-1" cx="134.76" cy="438.95" r="4.54"/><circle class="cls-1" cx="161.07" cy="465.26" r="4.54"/><circle class="cls-1" cx="191.55" cy="486.61" r="4.54"/><circle class="cls-1" cx="225.27" cy="502.33" r="4.54"/><circle class="cls-1" cx="261.21" cy="511.96" r="4.54"/><circle class="cls-1" cx="298.28" cy="515.2" r="4.54"/><circle class="cls-1" cx="335.35" cy="511.96" r="4.54"/><circle class="cls-1" cx="371.29" cy="502.33" r="4.54"/><circle class="cls-1" cx="405.01" cy="486.61" r="4.54"/><circle class="cls-1" cx="435.49" cy="465.26" r="4.54"/><circle class="cls-1" cx="461.8" cy="438.95" r="4.54"/><circle class="cls-1" cx="483.14" cy="408.48" r="4.54"/><circle class="cls-1" cx="498.87" cy="374.76" r="4.54"/><circle class="cls-1" cx="508.5" cy="338.82" r="4.54"/><circle class="cls-1" cx="511.74" cy="301.75" r="4.54"/><circle class="cls-1" cx="508.5" cy="264.68" r="4.54"/><circle class="cls-1" cx="498.87" cy="228.74" r="4.54"/><circle class="cls-1" cx="483.14" cy="195.02" r="4.54"/><circle class="cls-1" cx="461.8" cy="164.55" r="4.54"/><circle class="cls-1" cx="435.49" cy="138.24" r="4.54"/><circle class="cls-1" cx="405.01" cy="116.89" r="4.54"/><circle class="cls-1" cx="371.29" cy="101.17" r="4.54"/><circle class="cls-1" cx="335.35" cy="91.54" r="4.54"/></g><path class="cls-3" d="M319,499.7H278.63a1.12,1.12,0,0,1-1.13-.61l-7.14-24.45c-.13-.47.41-.91,1.14-.91h54.63c.72,0,1.27.44,1.13.91l-7.13,24.45A1.14,1.14,0,0,1,319,499.7Z"/><path class="cls-3" d="M324.83,449.79c-.41-.3-.78-.65-1.17-1-4-3.51-13.82-6-25.32-6s-21.32,2.48-25.32,6c-.38.34-.76.69-1.17,1a12.88,12.88,0,0,0-4.91,10.39h0c0,6.8,4.74,12.32,10.6,12.32h41.61c5.85,0,10.6-5.52,10.6-12.32h0A12.86,12.86,0,0,0,324.83,449.79Z"/><path class="cls-3" d="M319.09,441.65c-.27-.23-.53-.48-.77-.73-3-3.23-10.87-5.53-20.07-5.53s-17,2.3-20.08,5.53a10.52,10.52,0,0,1-.76.73,12.14,12.14,0,0,0-3.87,9.3h0c0,6.1,3.73,11,8.34,11h32.74c4.6,0,8.33-4.93,8.33-11h0A12.17,12.17,0,0,0,319.09,441.65Z"/><circle class="cls-3" cx="298.22" cy="435.39" r="8.04"/><path class="cls-3" d="M328,462.23c-.46-.25-.89-.55-1.33-.83-4.48-2.92-15.48-5-28.35-5s-23.87,2.06-28.35,5c-.44.28-.87.58-1.33.83a10,10,0,0,0-5.5,8.66h0c0,5.67,5.31,10.26,11.87,10.26h46.62c6.56,0,11.87-4.59,11.87-10.26h0A10,10,0,0,0,328,462.23Z"/><text class="cls-4" transform="translate(160.44 212.32)">Sweety</text><path class="cls-3" d="M245.2,254.25c-6.8.56-7.36,1-8.56,7.68l-6.24,32.24c-1.2,6.56-.72,7,6.32,7.6l-.56,2.24H214.8l.48-2.24c6.88-.56,7.28-1.12,8.56-7.6l3-16H200.64l-3,16c-1.28,6.64-.64,7,6.16,7.6l-.48,2.24H182l.48-2.24c6.48-.48,7.28-1.12,8.48-7.6l6.24-32.24c1.28-6.64.88-7-6.08-7.68l.4-2.24h21.36l-.48,2.24c-6.88.56-7.36,1.12-8.64,7.68l-2.48,13.12h26.24L230,261.93c1.28-6.64,1-7.12-6.08-7.68l.56-2.24h21.28Z"/><path class="cls-3" d="M296.32,273.29c0,16.64-11.44,31.92-28.24,31.92-12.64,0-20.72-8.72-20.72-21.92,0-16.48,11.76-32.4,28.32-32.4C288.48,250.89,296.32,259.69,296.32,273.29Zm-41.44,10.48c0,11,4.08,18.56,13.84,18.56,13.36,0,20.08-16.64,20.08-29.68,0-11.2-3.36-18.88-13.68-18.88C262.8,253.77,254.88,269.61,254.88,283.77Z"/><path class="cls-3" d="M370.64,254.25c-6.88.64-7.28.88-8.32,7.52-1.68,11.44-2.8,20.88-4.16,31.36-1,7.76-.32,8.08,6.4,8.64L364,304H343l.56-2.24c6.4-.64,6.88-.88,8.08-8.64,1.68-11.6,3.2-22.24,5-33.6h-.24c-8.8,14.72-22.16,37-26.16,44.48H328.4c-1.28-8.24-6.32-28.4-9.44-43.68h-.16l-5.28,21.92c-1.92,8.08-2.8,11.76-3.2,14.48-.56,3.52.24,4.48,6.4,5l-.56,2.24h-18.8l.56-2.24c5.44-.4,6.8-1.52,7.92-4.88,1.44-4.16,3.12-9.68,5.28-18.16L315,263.37c2-7.84,1.92-8.16-5.84-9.12l.64-2.24H323.2c2.64,12.32,6.88,27.2,9.92,40.64L357.92,252H371.2Z"/><path class="cls-3" d="M404.72,252c3.84,0,7.44,0,10.4-.08-.48,1.92-1.36,7.44-2.08,12.16l-2.48.08c-.32-8.32-1.68-9.12-6.88-9.12h-7.92c-2.64,0-3.36.16-3.92,3.2l-3.36,17.2h8.24c6.56,0,6.88-1,9.12-6.56h2.4L405,285.45h-2.4c0-6.16.24-7-6.56-7h-8.08l-2.8,14.24c-1.2,5.68-1,8.24,4.64,8.24h5.92c4.72,0,6.8-.48,9-2.56a28.06,28.06,0,0,0,5.28-7.36l2.32.8c-.8,2.24-3.52,9.68-4.56,12.16h-39l.56-2.24c7-.72,7.68-1,8.88-7.36l6.32-32.72c1.2-6.16.8-6.88-6.16-7.44l.48-2.24Z"/><line class="cls-5" x1="455.37" y1="330.71" x2="141.19" y2="330.71"/><line class="cls-5" x1="433.64" y1="404.81" x2="153.12" y2="404.81"/><text class="cls-6" transform="translate(123.66 383.9)">cu<tspan class="cls-7" x="52.19" y="0">p</tspan><tspan class="cls-8" x="81.23" y="0">c</tspan><tspan class="cls-9" x="103.67" y="0">a</tspan><tspan class="cls-10" x="132.38" y="0">k</tspan><tspan x="156.69" y="0">e </tspan><tspan class="cls-11" x="191.62" y="0">f</tspan><tspan x="206.8" y="0">a</tspan><tspan class="cls-12" x="235.5" y="0">c</tspan><tspan class="cls-13" x="259.1" y="0">t</tspan><tspan x="276.09" y="0">o</tspan><tspan class="cls-14" x="304.8" y="0">r</tspan><tspan x="323.39" y="0">y</tspan></text></g></g></svg>